# xmcd
#
# Track frame offsets:
#	150
#	14475
#	31575
#	49425
#	65625
#	84150
#	100950
#	116775
#	134325
#	149249
#	163574
#	180674
#	198524
#	214724
#	233249
#	250049
#	265874
#	283424
#
# Disc length: 3977 seconds
#
# Revision: 2
# Processed by: cddbd v1.5.2PL0 Copyright (c) Steve Scherf et al.
# Submitted via: audiograbber 1.83.01
#
DISCID=110f8712
DTITLE=Various Artist - PHN0106
DYEAR=2001
DGENRE=Country
TTITLE0=Jamie O'Neal - When I Think About Angels
TTITLE1=Trisha Yearwood - I Would've Loved You Anyway
TTITLE2=Tim McGraw - Grown Men Don't Cry
TTITLE3=Lee Ann Womack - Why They Call It Falling
TTITLE4=Brad Paisley - Two People Fell In Love
TTITLE5=Carolyn Dawn Johnson - Complicated
TTITLE6=Rascal Flatts - While You Loved Me
TTITLE7=Chris Cagle - Laredo
TTITLE8=Cyndi Thompson - What I Really Meant To Say
TTITLE9=Jamie O'Neal - When I Think About Angels (vocal)
TTITLE10=Trisha Yearwood - I Would've Loved You Anyway (vocal)
TTITLE11=Tim McGraw - Grown Men Don't Cry (vocal)
TTITLE12=Lee Ann Womack - Why They Call It Falling (vocal)
TTITLE13=Brad Paisley - Two People Fell In Love (vocal)
TTITLE14=Carolyn Dawn Johnson - Complicated (vocal)
TTITLE15=Rascal Flatts - While You Loved Me (vocal)
TTITLE16=Chris Cagle - Laredo (vocal)
TTITLE17=Cyndi Thompson - What I Really Meant To Say (vocal)
EXTD=fixed album name and vocal listings
EXTT0=
EXTT1=
EXTT2=
EXTT3=
EXTT4=
EXTT5=
EXTT6=
EXTT7=
EXTT8=
EXTT9=
EXTT10=
EXTT11=
EXTT12=
EXTT13=
EXTT14=
EXTT15=
EXTT16=
EXTT17=
PLAYORDER=
